<?xml version="1.0" standalone="no"?>
<!DOCTYPE svg PUBLIC "-//W3C//DTD SVG 20010904//EN" "http://www.w3.org/TR/2001/REC-SVG-20010904/DTD/svg10.dtd">
<svg version="1.0" xmlns="http://www.w3.org/2000/svg" width="207.000000pt" height="160.000000pt" viewBox="0 0 207.000000 160.000000">

    <g transform="translate(0.000000,160.000000) scale(0.100000,-0.100000)" fill="#f7f7f7">
        <path d="M962 1280 c-211 -29 -409 -165 -496 -341 -50 -101 -72 -223 -57 -319
        23 -149 115 -320 145 -271 4 5 -12 42 -33 83 -119 219 -84 457 93 633 118 118
        262 175 441 175 178 0 319 -56 440 -174 40 -39 83 -91 95 -116 26 -52 39 -63
        57 -48 21 17 -32 104 -118 189 -145 146 -359 217 -567 189z"/>

        <path d="M948 903 c-32 -5 -38 -33 -8 -33 19 0 20 -7 20 -150 0 -127 -2 -150
        -15 -150 -8 0 -15 -7 -15 -15 0 -12 13 -15 55 -15 42 0 55 3 55 15 0 8 -7 15
        -15 15 -12 0 -15 28 -17 167 -3 182 -1 175 -60 166z"/>

        <path d="M1388 903 c-22 -5 -24 -33 -3 -33 13 0 15 -24 15 -159 0 -99 4 -162
        10 -166 19 -12 135 -9 158 4 59 31 81 135 42 198 -22 37 -73 52 -126 35 l-34
        -10 0 69 c0 74 -4 77 -62 62z m178 -178 c12 -18 15 -38 11 -72 -6 -59 -35 -85
        -86 -81 l-36 3 -3 74 c-2 41 -1 80 2 88 3 8 22 13 50 13 38 0 48 -4 62 -25z"/>

        <path d="M680 868 c-61 -31 -84 -74 -84 -157 0 -77 19 -122 66 -151 39 -23
        109 -33 168 -23 43 8 45 10 48 46 3 32 0 37 -18 37 -13 0 -24 -9 -30 -25 -8
        -21 -16 -25 -52 -25 -91 0 -132 52 -125 159 3 57 7 67 35 92 27 25 41 29 87
        29 52 0 55 -1 55 -25 0 -18 5 -25 20 -25 17 0 20 7 20 39 0 32 -4 40 -22 45
        -50 13 -124 6 -168 -16z"/>

        <path d="M1088 783 c-22 -6 -24 -33 -3 -33 12 0 15 -16 15 -83 0 -93 13 -122
        59 -132 17 -4 43 0 65 9 21 9 38 11 41 5 10 -16 75 -11 75 6 0 8 -7 15 -15 15
        -12 0 -15 19 -15 110 0 119 0 119 -57 104 -26 -7 -32 -34 -8 -34 23 0 22 -165
        -1 -174 -27 -10 -71 -7 -82 7 -6 7 -13 56 -14 108 -3 86 -5 94 -23 96 -11 0
        -28 -1 -37 -4z"/>
    </g>
</svg>
