<?xml version="1.0" encoding="iso-8859-1"?>
<!-- Uploaded to: SVG Repo, www.svgrepo.com, Generator: SVG Repo Mixer Tools -->
<svg  fill="#fbfbfb" height="100px" width="100px" version="1.1" id="Layer_1" xmlns="http://www.w3.org/2000/svg" xmlns:xlink="http://www.w3.org/1999/xlink" 
	 viewBox="0 0 512 512" xml:space="preserve">
	<g>
		<g>
			<g>
				<path fill="#FFB800" d="M256,0C114.618,0,0,114.618,0,256s114.618,256,256,256s256-114.618,256-256S397.382,0,256,0z"/>
				
				<path fill="#000000" d="M128,213.333c0-11.791,9.542-21.333,21.333-21.333s21.333,9.542,21.333,21.333
					c0,11.782,9.551,21.333,21.333,21.333s21.333-9.551,21.333-21.333c0-35.355-28.645-64-64-64s-64,28.645-64,64
					c0,11.782,9.551,21.333,21.333,21.333C118.449,234.667,128,225.115,128,213.333z"/>
				
				<path fill="#000000" d="M362.667,149.333c-35.355,0-64,28.645-64,64c0,11.782,9.551,21.333,21.333,21.333
					s21.333-9.551,21.333-21.333c0-11.791,9.542-21.333,21.333-21.333S384,201.542,384,213.333
					c0,11.782,9.551,21.333,21.333,21.333c11.782,0,21.333-9.551,21.333-21.333C426.667,177.978,398.022,149.333,362.667,149.333z"/>
				
				<path fill="#000000" d="M384,277.333c-11.782,0-21.333,9.551-21.333,21.333c0,56.101-50.566,106.667-106.667,106.667
					s-106.667-50.566-106.667-106.667c0-11.782-9.551-21.333-21.333-21.333c-11.782,0-21.333,9.551-21.333,21.333
					C106.667,378.331,176.335,448,256,448s149.333-69.669,149.333-149.333C405.333,286.885,395.782,277.333,384,277.333z"/>
			</g>
		</g>
	</g>
</svg>